# xmcd
#
# Track frame offsets:
#	150
#	19035
#	40137
#	64360
#	90475
#	105997
#	124937
#	144387
#	159075
#	176645
#	192095
#
# Disc length: 2807 seconds
#
# Revision: 0
# Processed by: cddbd v1.5.1PL0 Copyright (c) Steve Scherf et al.
# Submitted via: EasyCDDAExtractor 8.2.1.1
#
DISCID=860af50b
DTITLE=Nalan - Of Aman
DYEAR=1995
DGENRE=Pop-Folk
TTITLE0=Tutmayin Beni
TTITLE1=Bunun Adi Sevda
TTITLE2=Of Aman
TTITLE3=Gönül Belasi
TTITLE4=Ya Habibi
TTITLE5=Affet
TTITLE6=Böyle Gelmis Böyle Gider
TTITLE7=Kim Yasaklar Bu Aski
TTITLE8=Gülüm
TTITLE9=Son Kez Öp
TTITLE10=Ölür müsün Öldürür müsün
EXTD=
EXTT0=
EXTT1=
EXTT2=
EXTT3=
EXTT4=
EXTT5=
EXTT6=
EXTT7=
EXTT8=
EXTT9=
EXTT10=
PLAYORDER=
